<?xml version="1.0" encoding="utf-8" ?>
<svg baseProfile="full" height="1060" version="1.1" width="2025" xmlns="http://www.w3.org/2000/svg" xmlns:ev="http://www.w3.org/2001/xml-events" xmlns:xlink="http://www.w3.org/1999/xlink"><defs /><text class="region-label" fill="black" font-size="18px" font-weight="bold" x="5" y="-10">South</text><text class="region-label" fill="black" font-size="12px" text-anchor="middle" x="90.0" y="-30">Round of 64</text><g><rect fill="white" height="40" stroke="black" width="180" x="0" y="33.333333333333336" /><text class="team-name" fill="black" font-size="10px" x="5" y="45.333333333333336">Picked: Kentucky</text><text class="team-name" fill="black" font-size="12px" x="5" y="58.333333333333336">7. Kentucky</text><text class="team-name" fill="black" font-size="12px" x="5" y="70.33333333333334">16. East Tennessee State</text><text fill="green" font-size="14px" x="165" y="57.333333333333336">✓</text></g><g><rect fill="white" height="40" stroke="black" width="180" x="0" y="86.66666666666667" /><text class="team-name" fill="black" font-size="10px" x="5" y="98.66666666666667">Picked: Texas</text><text class="team-name" fill="black" font-size="12px" x="5" y="111.66666666666667">8. Texas</text><text class="team-name" fill="black" font-size="12px" x="5" y="123.66666666666667">16. Wake Forest</text><text fill="red" font-size="14px" x="165" y="110.66666666666667">✗</text></g><g><rect fill="white" height="40" stroke="black" width="180" x="0" y="140.0" /><text class="team-name" fill="black" font-size="10px" x="5" y="152.0">Picked: Temple</text><text class="team-name" fill="black" font-size="12px" x="5" y="165.0">5. Temple</text><text class="team-name" fill="black" font-size="12px" x="5" y="177.0">11. Cornell</text><text fill="red" font-size="14px" x="165" y="164.0">✗</text></g><g><rect fill="white" height="40" stroke="black" width="180" x="0" y="193.33333333333334" /><text class="team-name" fill="black" font-size="10px" x="5" y="205.33333333333334">Picked: Wisconsin</text><text class="team-name" fill="black" font-size="12px" x="5" y="218.33333333333334">9. Wisconsin</text><text class="team-name" fill="black" font-size="12px" x="5" y="230.33333333333334">13. Wofford</text><text fill="green" font-size="14px" x="165" y="217.33333333333334">✓</text></g><g><rect fill="white" height="40" stroke="black" width="180" x="0" y="246.66666666666669" /><text class="team-name" fill="black" font-size="10px" x="5" y="258.6666666666667">Picked: Washington</text><text class="team-name" fill="black" font-size="12px" x="5" y="271.6666666666667">6. Marquette</text><text class="team-name" fill="black" font-size="12px" x="5" y="283.6666666666667">3. Washington</text><text fill="green" font-size="14px" x="165" y="270.6666666666667">✓</text></g><g><rect fill="white" height="40" stroke="black" width="180" x="0" y="300.0" /><text class="team-name" fill="black" font-size="10px" x="5" y="312.0">Picked: New Mexico</text><text class="team-name" fill="black" font-size="12px" x="5" y="325.0">12. New Mexico</text><text class="team-name" fill="black" font-size="12px" x="5" y="337.0">14. Montana</text><text fill="green" font-size="14px" x="165" y="324.0">✓</text></g><g><rect fill="white" height="40" stroke="black" width="180" x="0" y="353.3333333333333" /><text class="team-name" fill="black" font-size="10px" x="5" y="365.3333333333333">Picked: Missouri</text><text class="team-name" fill="black" font-size="12px" x="5" y="378.3333333333333">7. Clemson</text><text class="team-name" fill="black" font-size="12px" x="5" y="390.3333333333333">4. Missouri</text><text fill="green" font-size="14px" x="165" y="377.3333333333333">✓</text></g><g><rect fill="white" height="40" stroke="black" width="180" x="0" y="406.6666666666667" /><text class="team-name" fill="black" font-size="10px" x="5" y="418.6666666666667">Picked: West Virginia</text><text class="team-name" fill="black" font-size="12px" x="5" y="431.6666666666667">10. West Virginia</text><text class="team-name" fill="black" font-size="12px" x="5" y="443.6666666666667">15. Morgan State</text><text fill="green" font-size="14px" x="165" y="430.6666666666667">✓</text></g><text class="region-label" fill="black" font-size="12px" text-anchor="middle" x="290.0" y="-30">Round of 32</text><g><rect fill="white" height="40" stroke="black" width="180" x="200" y="76.0" /><text class="team-name" fill="black" font-size="10px" x="205" y="88.0">Picked: Kentucky</text><text class="team-name" fill="black" font-size="12px" x="205" y="101.0">7. Kentucky</text><text class="team-name" fill="black" font-size="12px" x="205" y="113.0">8. Texas</text><text fill="red" font-size="14px" x="365" y="100.0">✗</text></g><g><rect fill="white" height="40" stroke="black" width="180" x="200" y="172.0" /><text class="team-name" fill="black" font-size="10px" x="205" y="184.0">Picked: Temple</text><text class="team-name" fill="black" font-size="12px" x="205" y="197.0">5. Temple</text><text class="team-name" fill="black" font-size="12px" x="205" y="209.0">9. Wisconsin</text><text fill="red" font-size="14px" x="365" y="196.0">✗</text></g><g><rect fill="white" height="40" stroke="black" width="180" x="200" y="268.0" /><text class="team-name" fill="black" font-size="10px" x="205" y="280.0">Picked: New Mexico</text><text class="team-name" fill="black" font-size="12px" x="205" y="293.0">3. Washington</text><text class="team-name" fill="black" font-size="12px" x="205" y="305.0">12. New Mexico</text><text fill="red" font-size="14px" x="365" y="292.0">✗</text></g><g><rect fill="white" height="40" stroke="black" width="180" x="200" y="364.0" /><text class="team-name" fill="black" font-size="10px" x="205" y="376.0">Picked: West Virginia</text><text class="team-name" fill="black" font-size="12px" x="205" y="389.0">4. Missouri</text><text class="team-name" fill="black" font-size="12px" x="205" y="401.0">10. West Virginia</text><text fill="red" font-size="14px" x="365" y="388.0">✗</text></g><text class="region-label" fill="black" font-size="12px" text-anchor="middle" x="490.0" y="-30">Sweet Sixteen</text><g><rect fill="white" height="40" stroke="black" width="180" x="400" y="140.0" /><text class="team-name" fill="black" font-size="10px" x="405" y="152.0">Picked: Kentucky</text><text class="team-name" fill="black" font-size="12px" x="405" y="165.0">7. Kentucky</text><text class="team-name" fill="black" font-size="12px" x="405" y="177.0">5. Temple</text><text fill="red" font-size="14px" x="565" y="164.0">✗</text></g><g><rect fill="white" height="40" stroke="black" width="180" x="400" y="300.0" /><text class="team-name" fill="black" font-size="10px" x="405" y="312.0">Picked: West Virginia</text><text class="team-name" fill="black" font-size="12px" x="405" y="325.0">12. New Mexico</text><text class="team-name" fill="black" font-size="12px" x="405" y="337.0">10. West Virginia</text><text fill="red" font-size="14px" x="565" y="324.0">✗</text></g><text class="region-label" fill="black" font-size="12px" text-anchor="middle" x="690.0" y="-30">Elite Eight</text><g><rect fill="white" height="40" stroke="black" width="180" x="600" y="220.0" /><text class="team-name" fill="black" font-size="10px" x="605" y="232.0">Picked: Kentucky</text><text class="team-name" fill="black" font-size="12px" x="605" y="245.0">7. Kentucky</text><text class="team-name" fill="black" font-size="12px" x="605" y="257.0">10. West Virginia</text><text fill="red" font-size="14px" x="765" y="244.0">✗</text></g><text class="region-label" fill="black" font-size="18px" font-weight="bold" x="5" y="570">West</text><text class="region-label" fill="black" font-size="12px" text-anchor="middle" x="90.0" y="550">Round of 64</text><g><rect fill="white" height="40" stroke="black" width="180" x="0" y="613.3333333333334" /><text class="team-name" fill="black" font-size="10px" x="5" y="625.3333333333334">Picked: Kentucky</text><text class="team-name" fill="black" font-size="12px" x="5" y="638.3333333333334">7. Kentucky</text><text class="team-name" fill="black" font-size="12px" x="5" y="650.3333333333334">16. Wake Forest</text><text fill="green" font-size="14px" x="165" y="637.3333333333334">✓</text></g><g><rect fill="white" height="40" stroke="black" width="180" x="0" y="666.6666666666666" /><text class="team-name" fill="black" font-size="10px" x="5" y="678.6666666666666">Picked: Wisconsin</text><text class="team-name" fill="black" font-size="12px" x="5" y="691.6666666666666">11. Cornell</text><text class="team-name" fill="black" font-size="12px" x="5" y="703.6666666666666">9. Wisconsin</text><text fill="red" font-size="14px" x="165" y="690.6666666666666">✗</text></g><g><rect fill="white" height="40" stroke="black" width="180" x="0" y="720.0" /><text class="team-name" fill="black" font-size="10px" x="5" y="732.0">Picked: New Mexico</text><text class="team-name" fill="black" font-size="12px" x="5" y="745.0">3. Washington</text><text class="team-name" fill="black" font-size="12px" x="5" y="757.0">12. New Mexico</text><text fill="red" font-size="14px" x="165" y="744.0">✗</text></g><g><rect fill="white" height="40" stroke="black" width="180" x="0" y="773.3333333333334" /><text class="team-name" fill="black" font-size="10px" x="5" y="785.3333333333334">Picked: West Virginia</text><text class="team-name" fill="black" font-size="12px" x="5" y="798.3333333333334">4. Missouri</text><text class="team-name" fill="black" font-size="12px" x="5" y="810.3333333333334">10. West Virginia</text><text fill="green" font-size="14px" x="165" y="797.3333333333334">✓</text></g><g><rect fill="white" height="40" stroke="black" width="180" x="0" y="826.6666666666667" /><text class="team-name" fill="black" font-size="10px" x="5" y="838.6666666666667">Picked: Kentucky</text><text class="team-name" fill="black" font-size="12px" x="5" y="851.6666666666667">7. Kentucky</text><text class="team-name" fill="black" font-size="12px" x="5" y="863.6666666666667">11. Cornell</text><text fill="green" font-size="14px" x="165" y="850.6666666666667">✓</text></g><g><rect fill="white" height="40" stroke="black" width="180" x="0" y="880.0" /><text class="team-name" fill="black" font-size="10px" x="5" y="892.0">Picked: West Virginia</text><text class="team-name" fill="black" font-size="12px" x="5" y="905.0">3. Washington</text><text class="team-name" fill="black" font-size="12px" x="5" y="917.0">10. West Virginia</text><text fill="green" font-size="14px" x="165" y="904.0">✓</text></g><g><rect fill="white" height="40" stroke="black" width="180" x="0" y="933.3333333333333" /><text class="team-name" fill="black" font-size="10px" x="5" y="945.3333333333333">Picked: Kentucky</text><text class="team-name" fill="black" font-size="12px" x="5" y="958.3333333333333">7. Kentucky</text><text class="team-name" fill="black" font-size="12px" x="5" y="970.3333333333333">10. West Virginia</text><text fill="red" font-size="14px" x="165" y="957.3333333333333">✗</text></g><g><rect fill="white" height="40" stroke="black" width="180" x="0" y="986.6666666666667" /><text class="team-name" fill="black" font-size="10px" x="5" y="998.6666666666667">Picked: Kansas</text><text class="team-name" fill="black" font-size="12px" x="5" y="1011.6666666666667">2. Kansas</text><text class="team-name" fill="black" font-size="12px" x="5" y="1023.6666666666667">15. Lehigh</text><text fill="green" font-size="14px" x="165" y="1010.6666666666667">✓</text></g><text class="region-label" fill="black" font-size="12px" text-anchor="middle" x="290.0" y="550">Round of 32</text><g><rect fill="white" height="40" stroke="black" width="180" x="200" y="656.0" /><text class="team-name" fill="black" font-size="10px" x="205" y="668.0">Picked: Kentucky</text><text class="team-name" fill="black" font-size="12px" x="205" y="681.0">7. Kentucky</text><text class="team-name" fill="black" font-size="12px" x="205" y="693.0">9. Wisconsin</text><text fill="red" font-size="14px" x="365" y="680.0">✗</text></g><g><rect fill="white" height="40" stroke="black" width="180" x="200" y="752.0" /><text class="team-name" fill="black" font-size="10px" x="205" y="764.0">Picked: West Virginia</text><text class="team-name" fill="black" font-size="12px" x="205" y="777.0">12. New Mexico</text><text class="team-name" fill="black" font-size="12px" x="205" y="789.0">10. West Virginia</text><text fill="red" font-size="14px" x="365" y="776.0">✗</text></g><g><rect fill="white" height="40" stroke="black" width="180" x="200" y="848.0" /><text class="team-name" fill="black" font-size="10px" x="205" y="860.0">Picked: Kentucky</text><text class="team-name" fill="black" font-size="12px" x="205" y="873.0">7. Kentucky</text><text class="team-name" fill="black" font-size="12px" x="205" y="885.0">10. West Virginia</text><text fill="red" font-size="14px" x="365" y="872.0">✗</text></g><g><rect fill="white" height="40" stroke="black" width="180" x="200" y="944.0" /><text class="team-name" fill="black" font-size="10px" x="205" y="956.0">Picked: Kansas</text><text class="team-name" fill="black" font-size="12px" x="205" y="969.0">7. Kentucky</text><text class="team-name" fill="black" font-size="12px" x="205" y="981.0">2. Kansas</text><text fill="red" font-size="14px" x="365" y="968.0">✗</text></g><text class="region-label" fill="black" font-size="12px" text-anchor="middle" x="490.0" y="550">Sweet Sixteen</text><g><rect fill="white" height="40" stroke="black" width="180" x="400" y="720.0" /><text class="team-name" fill="black" font-size="10px" x="405" y="732.0">Picked: Kentucky</text><text class="team-name" fill="black" font-size="12px" x="405" y="745.0">7. Kentucky</text><text class="team-name" fill="black" font-size="12px" x="405" y="757.0">10. West Virginia</text><text fill="red" font-size="14px" x="565" y="744.0">✗</text></g><g><rect fill="white" height="40" stroke="black" width="180" x="400" y="880.0" /><text class="team-name" fill="black" font-size="10px" x="405" y="892.0">Picked: Kansas</text><text class="team-name" fill="black" font-size="12px" x="405" y="905.0">7. Kentucky</text><text class="team-name" fill="black" font-size="12px" x="405" y="917.0">2. Kansas</text><text fill="red" font-size="14px" x="565" y="904.0">✗</text></g><text class="region-label" fill="black" font-size="12px" text-anchor="middle" x="690.0" y="550">Elite Eight</text><g><rect fill="white" height="40" stroke="black" width="180" x="600" y="800.0" /><text class="team-name" fill="black" font-size="10px" x="605" y="812.0">Picked: Kansas</text><text class="team-name" fill="black" font-size="12px" x="605" y="825.0">7. Kentucky</text><text class="team-name" fill="black" font-size="12px" x="605" y="837.0">2. Kansas</text><text fill="red" font-size="14px" x="765" y="824.0">✗</text></g><text class="region-label" fill="black" font-size="18px" font-weight="bold" x="1230" y="-10">East</text><text class="region-label" fill="black" font-size="12px" text-anchor="middle" x="1915.0" y="-30">Round of 64</text><g><rect fill="white" height="40" stroke="black" width="180" x="1825" y="33.333333333333336" /><text class="team-name" fill="black" font-size="10px" x="1830" y="45.333333333333336">Picked: Northern Iowa</text><text class="team-name" fill="black" font-size="12px" x="1830" y="58.333333333333336">1. Nevada-Las Vegas</text><text class="team-name" fill="black" font-size="12px" x="1830" y="70.33333333333334">4. Northern Iowa</text><text fill="green" font-size="14px" x="1990" y="57.333333333333336">✓</text></g><g><rect fill="white" height="40" stroke="black" width="180" x="1825" y="86.66666666666667" /><text class="team-name" fill="black" font-size="10px" x="1830" y="98.66666666666667">Picked: Michigan State</text><text class="team-name" fill="black" font-size="12px" x="1830" y="111.66666666666667">3. Michigan State</text><text class="team-name" fill="black" font-size="12px" x="1830" y="123.66666666666667">9. New Mexico State</text><text fill="green" font-size="14px" x="1990" y="110.66666666666667">✓</text></g><g><rect fill="white" height="40" stroke="black" width="180" x="1825" y="140.0" /><text class="team-name" fill="black" font-size="10px" x="1830" y="152.0">Picked: Maryland</text><text class="team-name" fill="black" font-size="12px" x="1830" y="165.0">16. Maryland</text><text class="team-name" fill="black" font-size="12px" x="1830" y="177.0">12. Houston</text><text fill="green" font-size="14px" x="1990" y="164.0">✓</text></g><g><rect fill="white" height="40" stroke="black" width="180" x="1825" y="193.33333333333334" /><text class="team-name" fill="black" font-size="10px" x="1830" y="205.33333333333334">Picked: San Diego State</text><text class="team-name" fill="black" font-size="12px" x="1830" y="218.33333333333334">14. Tennessee</text><text class="team-name" fill="black" font-size="12px" x="1830" y="230.33333333333334">13. San Diego State</text><text fill="red" font-size="14px" x="1990" y="217.33333333333334">✗</text></g><g><rect fill="white" height="40" stroke="black" width="180" x="1825" y="246.66666666666669" /><text class="team-name" fill="black" font-size="10px" x="1830" y="258.6666666666667">Picked: Georgetown</text><text class="team-name" fill="black" font-size="12px" x="1830" y="271.6666666666667">6. Georgetown</text><text class="team-name" fill="black" font-size="12px" x="1830" y="283.6666666666667">9. Ohio</text><text fill="red" font-size="14px" x="1990" y="270.6666666666667">✗</text></g><g><rect fill="white" height="40" stroke="black" width="180" x="1825" y="300.0" /><text class="team-name" fill="black" font-size="10px" x="1830" y="312.0">Picked: Oklahoma State</text><text class="team-name" fill="black" font-size="12px" x="1830" y="325.0">3. Oklahoma State</text><text class="team-name" fill="black" font-size="12px" x="1830" y="337.0">5. Georgia Tech</text><text fill="red" font-size="14px" x="1990" y="324.0">✗</text></g><g><rect fill="white" height="40" stroke="black" width="180" x="1825" y="353.3333333333333" /><text class="team-name" fill="black" font-size="10px" x="1830" y="365.3333333333333">Picked: Ohio State</text><text class="team-name" fill="black" font-size="12px" x="1830" y="378.3333333333333">11. Ohio State</text><text class="team-name" fill="black" font-size="12px" x="1830" y="390.3333333333333">10. UC Santa Barbara</text><text fill="green" font-size="14px" x="1990" y="377.3333333333333">✓</text></g><g><rect fill="white" height="40" stroke="black" width="180" x="1825" y="406.6666666666667" /><text class="team-name" fill="black" font-size="10px" x="1830" y="418.6666666666667">Picked: Kansas</text><text class="team-name" fill="black" font-size="12px" x="1830" y="431.6666666666667">2. Kansas</text><text class="team-name" fill="black" font-size="12px" x="1830" y="443.6666666666667">4. Northern Iowa</text><text fill="red" font-size="14px" x="1990" y="430.6666666666667">✗</text></g><text class="region-label" fill="black" font-size="12px" text-anchor="middle" x="1715.0" y="-30">Round of 32</text><g><rect fill="white" height="40" stroke="black" width="180" x="1625" y="76.0" /><text class="team-name" fill="black" font-size="10px" x="1630" y="88.0">Picked: Northern Iowa</text><text class="team-name" fill="black" font-size="12px" x="1630" y="101.0">4. Northern Iowa</text><text class="team-name" fill="black" font-size="12px" x="1630" y="113.0">3. Michigan State</text><text fill="red" font-size="14px" x="1790" y="100.0">✗</text></g><g><rect fill="white" height="40" stroke="black" width="180" x="1625" y="172.0" /><text class="team-name" fill="black" font-size="10px" x="1630" y="184.0">Picked: Maryland</text><text class="team-name" fill="black" font-size="12px" x="1630" y="197.0">16. Maryland</text><text class="team-name" fill="black" font-size="12px" x="1630" y="209.0">13. San Diego State</text><text fill="red" font-size="14px" x="1790" y="196.0">✗</text></g><g><rect fill="white" height="40" stroke="black" width="180" x="1625" y="268.0" /><text class="team-name" fill="black" font-size="10px" x="1630" y="280.0">Picked: Georgetown</text><text class="team-name" fill="black" font-size="12px" x="1630" y="293.0">6. Georgetown</text><text class="team-name" fill="black" font-size="12px" x="1630" y="305.0">3. Oklahoma State</text><text fill="red" font-size="14px" x="1790" y="292.0">✗</text></g><g><rect fill="white" height="40" stroke="black" width="180" x="1625" y="364.0" /><text class="team-name" fill="black" font-size="10px" x="1630" y="376.0">Picked: Kansas</text><text class="team-name" fill="black" font-size="12px" x="1630" y="389.0">11. Ohio State</text><text class="team-name" fill="black" font-size="12px" x="1630" y="401.0">2. Kansas</text><text fill="red" font-size="14px" x="1790" y="388.0">✗</text></g><text class="region-label" fill="black" font-size="12px" text-anchor="middle" x="1515.0" y="-30">Sweet Sixteen</text><g><rect fill="white" height="40" stroke="black" width="180" x="1425" y="140.0" /><text class="team-name" fill="black" font-size="10px" x="1430" y="152.0">Picked: Northern Iowa</text><text class="team-name" fill="black" font-size="12px" x="1430" y="165.0">4. Northern Iowa</text><text class="team-name" fill="black" font-size="12px" x="1430" y="177.0">16. Maryland</text><text fill="red" font-size="14px" x="1590" y="164.0">✗</text></g><g><rect fill="white" height="40" stroke="black" width="180" x="1425" y="300.0" /><text class="team-name" fill="black" font-size="10px" x="1430" y="312.0">Picked: Kansas</text><text class="team-name" fill="black" font-size="12px" x="1430" y="325.0">6. Georgetown</text><text class="team-name" fill="black" font-size="12px" x="1430" y="337.0">2. Kansas</text><text fill="red" font-size="14px" x="1590" y="324.0">✗</text></g><text class="region-label" fill="black" font-size="12px" text-anchor="middle" x="1315.0" y="-30">Elite Eight</text><g><rect fill="white" height="40" stroke="black" width="180" x="1225" y="220.0" /><text class="team-name" fill="black" font-size="10px" x="1230" y="232.0">Picked: Kansas</text><text class="team-name" fill="black" font-size="12px" x="1230" y="245.0">4. Northern Iowa</text><text class="team-name" fill="black" font-size="12px" x="1230" y="257.0">2. Kansas</text><text fill="red" font-size="14px" x="1390" y="244.0">✗</text></g><text class="region-label" fill="black" font-size="18px" font-weight="bold" x="1230" y="570">Midwest</text><text class="region-label" fill="black" font-size="12px" text-anchor="middle" x="1915.0" y="550">Round of 64</text><g><rect fill="white" height="40" stroke="black" width="180" x="1825" y="613.3333333333334" /><text class="team-name" fill="black" font-size="10px" x="1830" y="625.3333333333334">Picked: Maryland</text><text class="team-name" fill="black" font-size="12px" x="1830" y="638.3333333333334">3. Michigan State</text><text class="team-name" fill="black" font-size="12px" x="1830" y="650.3333333333334">16. Maryland</text><text fill="red" font-size="14px" x="1990" y="637.3333333333334">✗</text></g><g><rect fill="white" height="40" stroke="black" width="180" x="1825" y="666.6666666666666" /><text class="team-name" fill="black" font-size="10px" x="1830" y="678.6666666666666">Picked: Tennessee</text><text class="team-name" fill="black" font-size="12px" x="1830" y="691.6666666666666">14. Tennessee</text><text class="team-name" fill="black" font-size="12px" x="1830" y="703.6666666666666">9. Ohio</text><text fill="green" font-size="14px" x="1990" y="690.6666666666666">✓</text></g><g><rect fill="white" height="40" stroke="black" width="180" x="1825" y="720.0" /><text class="team-name" fill="black" font-size="10px" x="1830" y="732.0">Picked: Ohio State</text><text class="team-name" fill="black" font-size="12px" x="1830" y="745.0">5. Georgia Tech</text><text class="team-name" fill="black" font-size="12px" x="1830" y="757.0">11. Ohio State</text><text fill="green" font-size="14px" x="1990" y="744.0">✓</text></g><g><rect fill="white" height="40" stroke="black" width="180" x="1825" y="773.3333333333334" /><text class="team-name" fill="black" font-size="10px" x="1830" y="785.3333333333334">Picked: Northern Iowa</text><text class="team-name" fill="black" font-size="12px" x="1830" y="798.3333333333334">4. Northern Iowa</text><text class="team-name" fill="black" font-size="12px" x="1830" y="810.3333333333334">3. Michigan State</text><text fill="red" font-size="14px" x="1990" y="797.3333333333334">✗</text></g><g><rect fill="white" height="40" stroke="black" width="180" x="1825" y="826.6666666666667" /><text class="team-name" fill="black" font-size="10px" x="1830" y="838.6666666666667">Picked: Ohio State</text><text class="team-name" fill="black" font-size="12px" x="1830" y="851.6666666666667">14. Tennessee</text><text class="team-name" fill="black" font-size="12px" x="1830" y="863.6666666666667">11. Ohio State</text><text fill="red" font-size="14px" x="1990" y="850.6666666666667">✗</text></g><g><rect fill="white" height="40" stroke="black" width="180" x="1825" y="880.0" /><text class="team-name" fill="black" font-size="10px" x="1830" y="892.0">Picked: Tennessee</text><text class="team-name" fill="black" font-size="12px" x="1830" y="905.0">3. Michigan State</text><text class="team-name" fill="black" font-size="12px" x="1830" y="917.0">14. Tennessee</text><text fill="red" font-size="14px" x="1990" y="904.0">✗</text></g><g><rect fill="white" height="40" stroke="black" width="180" x="1825" y="933.3333333333333" /><text class="team-name" fill="black" font-size="10px" x="1830" y="945.3333333333333">Picked: Duke</text><text class="team-name" fill="black" font-size="12px" x="1830" y="958.3333333333333">7. Duke</text><text class="team-name" fill="black" font-size="12px" x="1830" y="970.3333333333333">10. Arkansas-Pine Bluff</text><text fill="green" font-size="14px" x="1990" y="957.3333333333333">✓</text></g><g><rect fill="white" height="40" stroke="black" width="180" x="1825" y="986.6666666666667" /><text class="team-name" fill="black" font-size="10px" x="1830" y="998.6666666666667">Picked: California</text><text class="team-name" fill="black" font-size="12px" x="1830" y="1011.6666666666667">2. California</text><text class="team-name" fill="black" font-size="12px" x="1830" y="1023.6666666666667">15. Louisville</text><text fill="green" font-size="14px" x="1990" y="1010.6666666666667">✓</text></g><text class="region-label" fill="black" font-size="12px" text-anchor="middle" x="1715.0" y="550">Round of 32</text><g><rect fill="white" height="40" stroke="black" width="180" x="1625" y="656.0" /><text class="team-name" fill="black" font-size="10px" x="1630" y="668.0">Picked: Maryland</text><text class="team-name" fill="black" font-size="12px" x="1630" y="681.0">16. Maryland</text><text class="team-name" fill="black" font-size="12px" x="1630" y="693.0">14. Tennessee</text><text fill="red" font-size="14px" x="1790" y="680.0">✗</text></g><g><rect fill="white" height="40" stroke="black" width="180" x="1625" y="752.0" /><text class="team-name" fill="black" font-size="10px" x="1630" y="764.0">Picked: Ohio State</text><text class="team-name" fill="black" font-size="12px" x="1630" y="777.0">11. Ohio State</text><text class="team-name" fill="black" font-size="12px" x="1630" y="789.0">4. Northern Iowa</text><text fill="red" font-size="14px" x="1790" y="776.0">✗</text></g><g><rect fill="white" height="40" stroke="black" width="180" x="1625" y="848.0" /><text class="team-name" fill="black" font-size="10px" x="1630" y="860.0">Picked: Ohio State</text><text class="team-name" fill="black" font-size="12px" x="1630" y="873.0">11. Ohio State</text><text class="team-name" fill="black" font-size="12px" x="1630" y="885.0">14. Tennessee</text><text fill="red" font-size="14px" x="1790" y="872.0">✗</text></g><g><rect fill="white" height="40" stroke="black" width="180" x="1625" y="944.0" /><text class="team-name" fill="black" font-size="10px" x="1630" y="956.0">Picked: Duke</text><text class="team-name" fill="black" font-size="12px" x="1630" y="969.0">7. Duke</text><text class="team-name" fill="black" font-size="12px" x="1630" y="981.0">2. California</text><text fill="red" font-size="14px" x="1790" y="968.0">✗</text></g><text class="region-label" fill="black" font-size="12px" text-anchor="middle" x="1515.0" y="550">Sweet Sixteen</text><g><rect fill="white" height="40" stroke="black" width="180" x="1425" y="720.0" /><text class="team-name" fill="black" font-size="10px" x="1430" y="732.0">Picked: Ohio State</text><text class="team-name" fill="black" font-size="12px" x="1430" y="745.0">16. Maryland</text><text class="team-name" fill="black" font-size="12px" x="1430" y="757.0">11. Ohio State</text><text fill="red" font-size="14px" x="1590" y="744.0">✗</text></g><g><rect fill="white" height="40" stroke="black" width="180" x="1425" y="880.0" /><text class="team-name" fill="black" font-size="10px" x="1430" y="892.0">Picked: Duke</text><text class="team-name" fill="black" font-size="12px" x="1430" y="905.0">11. Ohio State</text><text class="team-name" fill="black" font-size="12px" x="1430" y="917.0">7. Duke</text><text fill="red" font-size="14px" x="1590" y="904.0">✗</text></g><text class="region-label" fill="black" font-size="12px" text-anchor="middle" x="1315.0" y="550">Elite Eight</text><g><rect fill="white" height="40" stroke="black" width="180" x="1225" y="800.0" /><text class="team-name" fill="black" font-size="10px" x="1230" y="812.0">Picked: Duke</text><text class="team-name" fill="black" font-size="12px" x="1230" y="825.0">11. Ohio State</text><text class="team-name" fill="black" font-size="12px" x="1230" y="837.0">7. Duke</text><text fill="red" font-size="14px" x="1390" y="824.0">✗</text></g><g><rect fill="white" height="40" stroke="black" width="180" x="802.5" y="570.0" /><text class="team-name" fill="black" font-size="10px" x="807.5" y="582.0">Picked: Kansas</text><text class="team-name" fill="black" font-size="12px" x="807.5" y="595.0">7. Kentucky</text><text class="team-name" fill="black" font-size="12px" x="807.5" y="607.0">2. Kansas</text><text fill="red" font-size="14px" x="967.5" y="594.0">✗</text></g><g><rect fill="white" height="40" stroke="black" width="180" x="1042.5" y="570.0" /><text class="team-name" fill="black" font-size="10px" x="1047.5" y="582.0">Picked: Kansas</text><text class="team-name" fill="black" font-size="12px" x="1047.5" y="595.0">2. Kansas</text><text class="team-name" fill="black" font-size="12px" x="1047.5" y="607.0">7. Duke</text><text fill="red" font-size="14px" x="1207.5" y="594.0">✗</text></g><g><rect fill="white" height="40" stroke="black" width="180" x="922.5" y="510.0" /><text class="team-name" fill="black" font-size="10px" x="927.5" y="522.0">Picked: Kansas</text><text class="team-name" fill="black" font-size="12px" x="927.5" y="535.0">2. Kansas</text><text class="team-name" fill="black" font-size="12px" x="927.5" y="547.0">2. Kansas</text><text fill="red" font-size="14px" x="1087.5" y="534.0">✗</text></g><text fill="black" font-size="20px" font-weight="bold" text-anchor="middle" x="1012.5" y="630.0">Bracket Score: 190 points</text></svg>