<?xml version="1.0" encoding="utf-8" ?>
<svg baseProfile="full" height="1060" version="1.1" width="2025" xmlns="http://www.w3.org/2000/svg" xmlns:ev="http://www.w3.org/2001/xml-events" xmlns:xlink="http://www.w3.org/1999/xlink"><defs /><text class="region-label" fill="black" font-size="18px" font-weight="bold" x="5" y="-10">South</text><text class="region-label" fill="black" font-size="12px" text-anchor="middle" x="90.0" y="-30">Round of 64</text><g><rect fill="white" height="40" stroke="black" width="180" x="0" y="33.333333333333336" /><text class="team-name" fill="black" font-size="10px" x="5" y="45.333333333333336">Picked: Arizona</text><text class="team-name" fill="black" font-size="12px" x="5" y="58.333333333333336">1. Arizona</text><text class="team-name" fill="black" font-size="12px" x="5" y="70.33333333333334">16. Wright State</text><text fill="green" font-size="14px" x="165" y="57.333333333333336">✓</text></g><g><rect fill="white" height="40" stroke="black" width="180" x="0" y="86.66666666666667" /><text class="team-name" fill="black" font-size="10px" x="5" y="98.66666666666667">Picked: TCU</text><text class="team-name" fill="black" font-size="12px" x="5" y="111.66666666666667">8. Seton Hall</text><text class="team-name" fill="black" font-size="12px" x="5" y="123.66666666666667">9. TCU</text><text fill="green" font-size="14px" x="165" y="110.66666666666667">✓</text></g><g><rect fill="white" height="40" stroke="black" width="180" x="0" y="140.0" /><text class="team-name" fill="black" font-size="10px" x="5" y="152.0">Picked: Houston</text><text class="team-name" fill="black" font-size="12px" x="5" y="165.0">5. Houston</text><text class="team-name" fill="black" font-size="12px" x="5" y="177.0">12. UAB</text><text fill="green" font-size="14px" x="165" y="164.0">✓</text></g><g><rect fill="white" height="40" stroke="black" width="180" x="0" y="193.33333333333334" /><text class="team-name" fill="black" font-size="10px" x="5" y="205.33333333333334">Picked: Illinois</text><text class="team-name" fill="black" font-size="12px" x="5" y="218.33333333333334">4. Illinois</text><text class="team-name" fill="black" font-size="12px" x="5" y="230.33333333333334">13. Chattanooga</text><text fill="green" font-size="14px" x="165" y="217.33333333333334">✓</text></g><g><rect fill="white" height="40" stroke="black" width="180" x="0" y="246.66666666666669" /><text class="team-name" fill="black" font-size="10px" x="5" y="258.6666666666667">Picked: Colorado State</text><text class="team-name" fill="black" font-size="12px" x="5" y="271.6666666666667">6. Colorado State</text><text class="team-name" fill="black" font-size="12px" x="5" y="283.6666666666667">11. Michigan</text><text fill="red" font-size="14px" x="165" y="270.6666666666667">✗</text></g><g><rect fill="white" height="40" stroke="black" width="180" x="0" y="300.0" /><text class="team-name" fill="black" font-size="10px" x="5" y="312.0">Picked: Tennessee</text><text class="team-name" fill="black" font-size="12px" x="5" y="325.0">3. Tennessee</text><text class="team-name" fill="black" font-size="12px" x="5" y="337.0">14. Longwood</text><text fill="green" font-size="14px" x="165" y="324.0">✓</text></g><g><rect fill="white" height="40" stroke="black" width="180" x="0" y="353.3333333333333" /><text class="team-name" fill="black" font-size="10px" x="5" y="365.3333333333333">Picked: Loyola (IL)</text><text class="team-name" fill="black" font-size="12px" x="5" y="378.3333333333333">7. Ohio State</text><text class="team-name" fill="black" font-size="12px" x="5" y="390.3333333333333">10. Loyola (IL)</text><text fill="red" font-size="14px" x="165" y="377.3333333333333">✗</text></g><g><rect fill="white" height="40" stroke="black" width="180" x="0" y="406.6666666666667" /><text class="team-name" fill="black" font-size="10px" x="5" y="418.6666666666667">Picked: Villanova</text><text class="team-name" fill="black" font-size="12px" x="5" y="431.6666666666667">2. Villanova</text><text class="team-name" fill="black" font-size="12px" x="5" y="443.6666666666667">15. Delaware</text><text fill="green" font-size="14px" x="165" y="430.6666666666667">✓</text></g><text class="region-label" fill="black" font-size="12px" text-anchor="middle" x="290.0" y="-30">Round of 32</text><g><rect fill="white" height="40" stroke="black" width="180" x="200" y="76.0" /><text class="team-name" fill="black" font-size="10px" x="205" y="88.0">Picked: Arizona</text><text class="team-name" fill="black" font-size="12px" x="205" y="101.0">1. Arizona</text><text class="team-name" fill="black" font-size="12px" x="205" y="113.0">9. TCU</text><text fill="green" font-size="14px" x="365" y="100.0">✓</text></g><g><rect fill="white" height="40" stroke="black" width="180" x="200" y="172.0" /><text class="team-name" fill="black" font-size="10px" x="205" y="184.0">Picked: Houston</text><text class="team-name" fill="black" font-size="12px" x="205" y="197.0">5. Houston</text><text class="team-name" fill="black" font-size="12px" x="205" y="209.0">4. Illinois</text><text fill="green" font-size="14px" x="365" y="196.0">✓</text></g><g><rect fill="white" height="40" stroke="black" width="180" x="200" y="268.0" /><text class="team-name" fill="black" font-size="10px" x="205" y="280.0">Picked: Tennessee</text><text class="team-name" fill="black" font-size="12px" x="205" y="293.0">6. Colorado State</text><text class="team-name" fill="black" font-size="12px" x="205" y="305.0">3. Tennessee</text><text fill="red" font-size="14px" x="365" y="292.0">✗</text></g><g><rect fill="white" height="40" stroke="black" width="180" x="200" y="364.0" /><text class="team-name" fill="black" font-size="10px" x="205" y="376.0">Picked: Loyola (IL)</text><text class="team-name" fill="black" font-size="12px" x="205" y="389.0">10. Loyola (IL)</text><text class="team-name" fill="black" font-size="12px" x="205" y="401.0">2. Villanova</text><text fill="red" font-size="14px" x="365" y="388.0">✗</text></g><text class="region-label" fill="black" font-size="12px" text-anchor="middle" x="490.0" y="-30">Sweet Sixteen</text><g><rect fill="white" height="40" stroke="black" width="180" x="400" y="140.0" /><text class="team-name" fill="black" font-size="10px" x="405" y="152.0">Picked: Houston</text><text class="team-name" fill="black" font-size="12px" x="405" y="165.0">1. Arizona</text><text class="team-name" fill="black" font-size="12px" x="405" y="177.0">5. Houston</text><text fill="green" font-size="14px" x="565" y="164.0">✓</text></g><g><rect fill="white" height="40" stroke="black" width="180" x="400" y="300.0" /><text class="team-name" fill="black" font-size="10px" x="405" y="312.0">Picked: Tennessee</text><text class="team-name" fill="black" font-size="12px" x="405" y="325.0">3. Tennessee</text><text class="team-name" fill="black" font-size="12px" x="405" y="337.0">10. Loyola (IL)</text><text fill="red" font-size="14px" x="565" y="324.0">✗</text></g><text class="region-label" fill="black" font-size="12px" text-anchor="middle" x="690.0" y="-30">Elite Eight</text><g><rect fill="white" height="40" stroke="black" width="180" x="600" y="220.0" /><text class="team-name" fill="black" font-size="10px" x="605" y="232.0">Picked: Houston</text><text class="team-name" fill="black" font-size="12px" x="605" y="245.0">5. Houston</text><text class="team-name" fill="black" font-size="12px" x="605" y="257.0">3. Tennessee</text><text fill="red" font-size="14px" x="765" y="244.0">✗</text></g><text class="region-label" fill="black" font-size="18px" font-weight="bold" x="5" y="570">West</text><text class="region-label" fill="black" font-size="12px" text-anchor="middle" x="90.0" y="550">Round of 64</text><g><rect fill="white" height="40" stroke="black" width="180" x="0" y="613.3333333333334" /><text class="team-name" fill="black" font-size="10px" x="5" y="625.3333333333334">Picked: Kansas</text><text class="team-name" fill="black" font-size="12px" x="5" y="638.3333333333334">1. Kansas</text><text class="team-name" fill="black" font-size="12px" x="5" y="650.3333333333334">16. Texas Southern</text><text fill="green" font-size="14px" x="165" y="637.3333333333334">✓</text></g><g><rect fill="white" height="40" stroke="black" width="180" x="0" y="666.6666666666666" /><text class="team-name" fill="black" font-size="10px" x="5" y="678.6666666666666">Picked: San Diego State</text><text class="team-name" fill="black" font-size="12px" x="5" y="691.6666666666666">8. San Diego State</text><text class="team-name" fill="black" font-size="12px" x="5" y="703.6666666666666">9. Creighton</text><text fill="red" font-size="14px" x="165" y="690.6666666666666">✗</text></g><g><rect fill="white" height="40" stroke="black" width="180" x="0" y="720.0" /><text class="team-name" fill="black" font-size="10px" x="5" y="732.0">Picked: Iowa</text><text class="team-name" fill="black" font-size="12px" x="5" y="745.0">5. Iowa</text><text class="team-name" fill="black" font-size="12px" x="5" y="757.0">12. Richmond</text><text fill="red" font-size="14px" x="165" y="744.0">✗</text></g><g><rect fill="white" height="40" stroke="black" width="180" x="0" y="773.3333333333334" /><text class="team-name" fill="black" font-size="10px" x="5" y="785.3333333333334">Picked: Providence</text><text class="team-name" fill="black" font-size="12px" x="5" y="798.3333333333334">4. Providence</text><text class="team-name" fill="black" font-size="12px" x="5" y="810.3333333333334">13. South Dakota State</text><text fill="green" font-size="14px" x="165" y="797.3333333333334">✓</text></g><g><rect fill="white" height="40" stroke="black" width="180" x="0" y="826.6666666666667" /><text class="team-name" fill="black" font-size="10px" x="5" y="838.6666666666667">Picked: Louisiana State</text><text class="team-name" fill="black" font-size="12px" x="5" y="851.6666666666667">6. Louisiana State</text><text class="team-name" fill="black" font-size="12px" x="5" y="863.6666666666667">11. Iowa State</text><text fill="red" font-size="14px" x="165" y="850.6666666666667">✗</text></g><g><rect fill="white" height="40" stroke="black" width="180" x="0" y="880.0" /><text class="team-name" fill="black" font-size="10px" x="5" y="892.0">Picked: Wisconsin</text><text class="team-name" fill="black" font-size="12px" x="5" y="905.0">3. Wisconsin</text><text class="team-name" fill="black" font-size="12px" x="5" y="917.0">14. Colgate</text><text fill="green" font-size="14px" x="165" y="904.0">✓</text></g><g><rect fill="white" height="40" stroke="black" width="180" x="0" y="933.3333333333333" /><text class="team-name" fill="black" font-size="10px" x="5" y="945.3333333333333">Picked: Miami (FL)</text><text class="team-name" fill="black" font-size="12px" x="5" y="958.3333333333333">7. Southern California</text><text class="team-name" fill="black" font-size="12px" x="5" y="970.3333333333333">10. Miami (FL)</text><text fill="green" font-size="14px" x="165" y="957.3333333333333">✓</text></g><g><rect fill="white" height="40" stroke="black" width="180" x="0" y="986.6666666666667" /><text class="team-name" fill="black" font-size="10px" x="5" y="998.6666666666667">Picked: Auburn</text><text class="team-name" fill="black" font-size="12px" x="5" y="1011.6666666666667">2. Auburn</text><text class="team-name" fill="black" font-size="12px" x="5" y="1023.6666666666667">15. Jacksonville State</text><text fill="green" font-size="14px" x="165" y="1010.6666666666667">✓</text></g><text class="region-label" fill="black" font-size="12px" text-anchor="middle" x="290.0" y="550">Round of 32</text><g><rect fill="white" height="40" stroke="black" width="180" x="200" y="656.0" /><text class="team-name" fill="black" font-size="10px" x="205" y="668.0">Picked: Kansas</text><text class="team-name" fill="black" font-size="12px" x="205" y="681.0">1. Kansas</text><text class="team-name" fill="black" font-size="12px" x="205" y="693.0">8. San Diego State</text><text fill="green" font-size="14px" x="365" y="680.0">✓</text></g><g><rect fill="white" height="40" stroke="black" width="180" x="200" y="752.0" /><text class="team-name" fill="black" font-size="10px" x="205" y="764.0">Picked: Iowa</text><text class="team-name" fill="black" font-size="12px" x="205" y="777.0">5. Iowa</text><text class="team-name" fill="black" font-size="12px" x="205" y="789.0">4. Providence</text><text fill="red" font-size="14px" x="365" y="776.0">✗</text></g><g><rect fill="white" height="40" stroke="black" width="180" x="200" y="848.0" /><text class="team-name" fill="black" font-size="10px" x="205" y="860.0">Picked: Louisiana State</text><text class="team-name" fill="black" font-size="12px" x="205" y="873.0">6. Louisiana State</text><text class="team-name" fill="black" font-size="12px" x="205" y="885.0">3. Wisconsin</text><text fill="red" font-size="14px" x="365" y="872.0">✗</text></g><g><rect fill="white" height="40" stroke="black" width="180" x="200" y="944.0" /><text class="team-name" fill="black" font-size="10px" x="205" y="956.0">Picked: Auburn</text><text class="team-name" fill="black" font-size="12px" x="205" y="969.0">10. Miami (FL)</text><text class="team-name" fill="black" font-size="12px" x="205" y="981.0">2. Auburn</text><text fill="red" font-size="14px" x="365" y="968.0">✗</text></g><text class="region-label" fill="black" font-size="12px" text-anchor="middle" x="490.0" y="550">Sweet Sixteen</text><g><rect fill="white" height="40" stroke="black" width="180" x="400" y="720.0" /><text class="team-name" fill="black" font-size="10px" x="405" y="732.0">Picked: Kansas</text><text class="team-name" fill="black" font-size="12px" x="405" y="745.0">1. Kansas</text><text class="team-name" fill="black" font-size="12px" x="405" y="757.0">5. Iowa</text><text fill="green" font-size="14px" x="565" y="744.0">✓</text></g><g><rect fill="white" height="40" stroke="black" width="180" x="400" y="880.0" /><text class="team-name" fill="black" font-size="10px" x="405" y="892.0">Picked: Auburn</text><text class="team-name" fill="black" font-size="12px" x="405" y="905.0">6. Louisiana State</text><text class="team-name" fill="black" font-size="12px" x="405" y="917.0">2. Auburn</text><text fill="red" font-size="14px" x="565" y="904.0">✗</text></g><text class="region-label" fill="black" font-size="12px" text-anchor="middle" x="690.0" y="550">Elite Eight</text><g><rect fill="white" height="40" stroke="black" width="180" x="600" y="800.0" /><text class="team-name" fill="black" font-size="10px" x="605" y="812.0">Picked: Kansas</text><text class="team-name" fill="black" font-size="12px" x="605" y="825.0">1. Kansas</text><text class="team-name" fill="black" font-size="12px" x="605" y="837.0">2. Auburn</text><text fill="green" font-size="14px" x="765" y="824.0">✓</text></g><text class="region-label" fill="black" font-size="18px" font-weight="bold" x="1230" y="-10">East</text><text class="region-label" fill="black" font-size="12px" text-anchor="middle" x="1915.0" y="-30">Round of 64</text><g><rect fill="white" height="40" stroke="black" width="180" x="1825" y="33.333333333333336" /><text class="team-name" fill="black" font-size="10px" x="1830" y="45.333333333333336">Picked: Gonzaga</text><text class="team-name" fill="black" font-size="12px" x="1830" y="58.333333333333336">1. Gonzaga</text><text class="team-name" fill="black" font-size="12px" x="1830" y="70.33333333333334">16. Georgia State</text><text fill="green" font-size="14px" x="1990" y="57.333333333333336">✓</text></g><g><rect fill="white" height="40" stroke="black" width="180" x="1825" y="86.66666666666667" /><text class="team-name" fill="black" font-size="10px" x="1830" y="98.66666666666667">Picked: Memphis</text><text class="team-name" fill="black" font-size="12px" x="1830" y="111.66666666666667">8. Boise State</text><text class="team-name" fill="black" font-size="12px" x="1830" y="123.66666666666667">9. Memphis</text><text fill="green" font-size="14px" x="1990" y="110.66666666666667">✓</text></g><g><rect fill="white" height="40" stroke="black" width="180" x="1825" y="140.0" /><text class="team-name" fill="black" font-size="10px" x="1830" y="152.0">Picked: Connecticut</text><text class="team-name" fill="black" font-size="12px" x="1830" y="165.0">5. Connecticut</text><text class="team-name" fill="black" font-size="12px" x="1830" y="177.0">12. New Mexico State</text><text fill="red" font-size="14px" x="1990" y="164.0">✗</text></g><g><rect fill="white" height="40" stroke="black" width="180" x="1825" y="193.33333333333334" /><text class="team-name" fill="black" font-size="10px" x="1830" y="205.33333333333334">Picked: Arkansas</text><text class="team-name" fill="black" font-size="12px" x="1830" y="218.33333333333334">4. Arkansas</text><text class="team-name" fill="black" font-size="12px" x="1830" y="230.33333333333334">13. Vermont</text><text fill="green" font-size="14px" x="1990" y="217.33333333333334">✓</text></g><g><rect fill="white" height="40" stroke="black" width="180" x="1825" y="246.66666666666669" /><text class="team-name" fill="black" font-size="10px" x="1830" y="258.6666666666667">Picked: Alabama</text><text class="team-name" fill="black" font-size="12px" x="1830" y="271.6666666666667">6. Alabama</text><text class="team-name" fill="black" font-size="12px" x="1830" y="283.6666666666667">11. Notre Dame</text><text fill="red" font-size="14px" x="1990" y="270.6666666666667">✗</text></g><g><rect fill="white" height="40" stroke="black" width="180" x="1825" y="300.0" /><text class="team-name" fill="black" font-size="10px" x="1830" y="312.0">Picked: Texas Tech</text><text class="team-name" fill="black" font-size="12px" x="1830" y="325.0">3. Texas Tech</text><text class="team-name" fill="black" font-size="12px" x="1830" y="337.0">14. Montana State</text><text fill="green" font-size="14px" x="1990" y="324.0">✓</text></g><g><rect fill="white" height="40" stroke="black" width="180" x="1825" y="353.3333333333333" /><text class="team-name" fill="black" font-size="10px" x="1830" y="365.3333333333333">Picked: Davidson</text><text class="team-name" fill="black" font-size="12px" x="1830" y="378.3333333333333">7. Michigan State</text><text class="team-name" fill="black" font-size="12px" x="1830" y="390.3333333333333">10. Davidson</text><text fill="red" font-size="14px" x="1990" y="377.3333333333333">✗</text></g><g><rect fill="white" height="40" stroke="black" width="180" x="1825" y="406.6666666666667" /><text class="team-name" fill="black" font-size="10px" x="1830" y="418.6666666666667">Picked: Duke</text><text class="team-name" fill="black" font-size="12px" x="1830" y="431.6666666666667">2. Duke</text><text class="team-name" fill="black" font-size="12px" x="1830" y="443.6666666666667">15. Cal State Fullerton</text><text fill="green" font-size="14px" x="1990" y="430.6666666666667">✓</text></g><text class="region-label" fill="black" font-size="12px" text-anchor="middle" x="1715.0" y="-30">Round of 32</text><g><rect fill="white" height="40" stroke="black" width="180" x="1625" y="76.0" /><text class="team-name" fill="black" font-size="10px" x="1630" y="88.0">Picked: Gonzaga</text><text class="team-name" fill="black" font-size="12px" x="1630" y="101.0">1. Gonzaga</text><text class="team-name" fill="black" font-size="12px" x="1630" y="113.0">9. Memphis</text><text fill="green" font-size="14px" x="1790" y="100.0">✓</text></g><g><rect fill="white" height="40" stroke="black" width="180" x="1625" y="172.0" /><text class="team-name" fill="black" font-size="10px" x="1630" y="184.0">Picked: Arkansas</text><text class="team-name" fill="black" font-size="12px" x="1630" y="197.0">5. Connecticut</text><text class="team-name" fill="black" font-size="12px" x="1630" y="209.0">4. Arkansas</text><text fill="green" font-size="14px" x="1790" y="196.0">✓</text></g><g><rect fill="white" height="40" stroke="black" width="180" x="1625" y="268.0" /><text class="team-name" fill="black" font-size="10px" x="1630" y="280.0">Picked: Texas Tech</text><text class="team-name" fill="black" font-size="12px" x="1630" y="293.0">6. Alabama</text><text class="team-name" fill="black" font-size="12px" x="1630" y="305.0">3. Texas Tech</text><text fill="green" font-size="14px" x="1790" y="292.0">✓</text></g><g><rect fill="white" height="40" stroke="black" width="180" x="1625" y="364.0" /><text class="team-name" fill="black" font-size="10px" x="1630" y="376.0">Picked: Duke</text><text class="team-name" fill="black" font-size="12px" x="1630" y="389.0">10. Davidson</text><text class="team-name" fill="black" font-size="12px" x="1630" y="401.0">2. Duke</text><text fill="green" font-size="14px" x="1790" y="388.0">✓</text></g><text class="region-label" fill="black" font-size="12px" text-anchor="middle" x="1515.0" y="-30">Sweet Sixteen</text><g><rect fill="white" height="40" stroke="black" width="180" x="1425" y="140.0" /><text class="team-name" fill="black" font-size="10px" x="1430" y="152.0">Picked: Gonzaga</text><text class="team-name" fill="black" font-size="12px" x="1430" y="165.0">1. Gonzaga</text><text class="team-name" fill="black" font-size="12px" x="1430" y="177.0">4. Arkansas</text><text fill="red" font-size="14px" x="1590" y="164.0">✗</text></g><g><rect fill="white" height="40" stroke="black" width="180" x="1425" y="300.0" /><text class="team-name" fill="black" font-size="10px" x="1430" y="312.0">Picked: Texas Tech</text><text class="team-name" fill="black" font-size="12px" x="1430" y="325.0">3. Texas Tech</text><text class="team-name" fill="black" font-size="12px" x="1430" y="337.0">2. Duke</text><text fill="red" font-size="14px" x="1590" y="324.0">✗</text></g><text class="region-label" fill="black" font-size="12px" text-anchor="middle" x="1315.0" y="-30">Elite Eight</text><g><rect fill="white" height="40" stroke="black" width="180" x="1225" y="220.0" /><text class="team-name" fill="black" font-size="10px" x="1230" y="232.0">Picked: Gonzaga</text><text class="team-name" fill="black" font-size="12px" x="1230" y="245.0">1. Gonzaga</text><text class="team-name" fill="black" font-size="12px" x="1230" y="257.0">3. Texas Tech</text><text fill="red" font-size="14px" x="1390" y="244.0">✗</text></g><text class="region-label" fill="black" font-size="18px" font-weight="bold" x="1230" y="570">Midwest</text><text class="region-label" fill="black" font-size="12px" text-anchor="middle" x="1915.0" y="550">Round of 64</text><g><rect fill="white" height="40" stroke="black" width="180" x="1825" y="613.3333333333334" /><text class="team-name" fill="black" font-size="10px" x="1830" y="625.3333333333334">Picked: Baylor</text><text class="team-name" fill="black" font-size="12px" x="1830" y="638.3333333333334">1. Baylor</text><text class="team-name" fill="black" font-size="12px" x="1830" y="650.3333333333334">16. Norfolk State</text><text fill="green" font-size="14px" x="1990" y="637.3333333333334">✓</text></g><g><rect fill="white" height="40" stroke="black" width="180" x="1825" y="666.6666666666666" /><text class="team-name" fill="black" font-size="10px" x="1830" y="678.6666666666666">Picked: North Carolina</text><text class="team-name" fill="black" font-size="12px" x="1830" y="691.6666666666666">8. North Carolina</text><text class="team-name" fill="black" font-size="12px" x="1830" y="703.6666666666666">9. Marquette</text><text fill="green" font-size="14px" x="1990" y="690.6666666666666">✓</text></g><g><rect fill="white" height="40" stroke="black" width="180" x="1825" y="720.0" /><text class="team-name" fill="black" font-size="10px" x="1830" y="732.0">Picked: Saint Mary's (CA)</text><text class="team-name" fill="black" font-size="12px" x="1830" y="745.0">5. Saint Mary's (CA)</text><text class="team-name" fill="black" font-size="12px" x="1830" y="757.0">12. Indiana</text><text fill="green" font-size="14px" x="1990" y="744.0">✓</text></g><g><rect fill="white" height="40" stroke="black" width="180" x="1825" y="773.3333333333334" /><text class="team-name" fill="black" font-size="10px" x="1830" y="785.3333333333334">Picked: UCLA</text><text class="team-name" fill="black" font-size="12px" x="1830" y="798.3333333333334">4. UCLA</text><text class="team-name" fill="black" font-size="12px" x="1830" y="810.3333333333334">13. Akron</text><text fill="green" font-size="14px" x="1990" y="797.3333333333334">✓</text></g><g><rect fill="white" height="40" stroke="black" width="180" x="1825" y="826.6666666666667" /><text class="team-name" fill="black" font-size="10px" x="1830" y="838.6666666666667">Picked: Virginia Tech</text><text class="team-name" fill="black" font-size="12px" x="1830" y="851.6666666666667">6. Texas</text><text class="team-name" fill="black" font-size="12px" x="1830" y="863.6666666666667">11. Virginia Tech</text><text fill="red" font-size="14px" x="1990" y="850.6666666666667">✗</text></g><g><rect fill="white" height="40" stroke="black" width="180" x="1825" y="880.0" /><text class="team-name" fill="black" font-size="10px" x="1830" y="892.0">Picked: Purdue</text><text class="team-name" fill="black" font-size="12px" x="1830" y="905.0">3. Purdue</text><text class="team-name" fill="black" font-size="12px" x="1830" y="917.0">14. Yale</text><text fill="green" font-size="14px" x="1990" y="904.0">✓</text></g><g><rect fill="white" height="40" stroke="black" width="180" x="1825" y="933.3333333333333" /><text class="team-name" fill="black" font-size="10px" x="1830" y="945.3333333333333">Picked: San Francisco</text><text class="team-name" fill="black" font-size="12px" x="1830" y="958.3333333333333">7. Murray State</text><text class="team-name" fill="black" font-size="12px" x="1830" y="970.3333333333333">10. San Francisco</text><text fill="red" font-size="14px" x="1990" y="957.3333333333333">✗</text></g><g><rect fill="white" height="40" stroke="black" width="180" x="1825" y="986.6666666666667" /><text class="team-name" fill="black" font-size="10px" x="1830" y="998.6666666666667">Picked: Kentucky</text><text class="team-name" fill="black" font-size="12px" x="1830" y="1011.6666666666667">2. Kentucky</text><text class="team-name" fill="black" font-size="12px" x="1830" y="1023.6666666666667">15. Saint Peter's</text><text fill="red" font-size="14px" x="1990" y="1010.6666666666667">✗</text></g><text class="region-label" fill="black" font-size="12px" text-anchor="middle" x="1715.0" y="550">Round of 32</text><g><rect fill="white" height="40" stroke="black" width="180" x="1625" y="656.0" /><text class="team-name" fill="black" font-size="10px" x="1630" y="668.0">Picked: Baylor</text><text class="team-name" fill="black" font-size="12px" x="1630" y="681.0">1. Baylor</text><text class="team-name" fill="black" font-size="12px" x="1630" y="693.0">8. North Carolina</text><text fill="red" font-size="14px" x="1790" y="680.0">✗</text></g><g><rect fill="white" height="40" stroke="black" width="180" x="1625" y="752.0" /><text class="team-name" fill="black" font-size="10px" x="1630" y="764.0">Picked: Saint Mary's (CA)</text><text class="team-name" fill="black" font-size="12px" x="1630" y="777.0">5. Saint Mary's (CA)</text><text class="team-name" fill="black" font-size="12px" x="1630" y="789.0">4. UCLA</text><text fill="red" font-size="14px" x="1790" y="776.0">✗</text></g><g><rect fill="white" height="40" stroke="black" width="180" x="1625" y="848.0" /><text class="team-name" fill="black" font-size="10px" x="1630" y="860.0">Picked: Virginia Tech</text><text class="team-name" fill="black" font-size="12px" x="1630" y="873.0">11. Virginia Tech</text><text class="team-name" fill="black" font-size="12px" x="1630" y="885.0">3. Purdue</text><text fill="red" font-size="14px" x="1790" y="872.0">✗</text></g><g><rect fill="white" height="40" stroke="black" width="180" x="1625" y="944.0" /><text class="team-name" fill="black" font-size="10px" x="1630" y="956.0">Picked: San Francisco</text><text class="team-name" fill="black" font-size="12px" x="1630" y="969.0">10. San Francisco</text><text class="team-name" fill="black" font-size="12px" x="1630" y="981.0">2. Kentucky</text><text fill="red" font-size="14px" x="1790" y="968.0">✗</text></g><text class="region-label" fill="black" font-size="12px" text-anchor="middle" x="1515.0" y="550">Sweet Sixteen</text><g><rect fill="white" height="40" stroke="black" width="180" x="1425" y="720.0" /><text class="team-name" fill="black" font-size="10px" x="1430" y="732.0">Picked: Saint Mary's (CA)</text><text class="team-name" fill="black" font-size="12px" x="1430" y="745.0">1. Baylor</text><text class="team-name" fill="black" font-size="12px" x="1430" y="757.0">5. Saint Mary's (CA)</text><text fill="red" font-size="14px" x="1590" y="744.0">✗</text></g><g><rect fill="white" height="40" stroke="black" width="180" x="1425" y="880.0" /><text class="team-name" fill="black" font-size="10px" x="1430" y="892.0">Picked: San Francisco</text><text class="team-name" fill="black" font-size="12px" x="1430" y="905.0">11. Virginia Tech</text><text class="team-name" fill="black" font-size="12px" x="1430" y="917.0">10. San Francisco</text><text fill="red" font-size="14px" x="1590" y="904.0">✗</text></g><text class="region-label" fill="black" font-size="12px" text-anchor="middle" x="1315.0" y="550">Elite Eight</text><g><rect fill="white" height="40" stroke="black" width="180" x="1225" y="800.0" /><text class="team-name" fill="black" font-size="10px" x="1230" y="812.0">Picked: Saint Mary's (CA)</text><text class="team-name" fill="black" font-size="12px" x="1230" y="825.0">5. Saint Mary's (CA)</text><text class="team-name" fill="black" font-size="12px" x="1230" y="837.0">10. San Francisco</text><text fill="red" font-size="14px" x="1390" y="824.0">✗</text></g><g><rect fill="white" height="40" stroke="black" width="180" x="802.5" y="570.0" /><text class="team-name" fill="black" font-size="10px" x="807.5" y="582.0">Picked: Houston</text><text class="team-name" fill="black" font-size="12px" x="807.5" y="595.0">5. Houston</text><text class="team-name" fill="black" font-size="12px" x="807.5" y="607.0">1. Kansas</text><text fill="red" font-size="14px" x="967.5" y="594.0">✗</text></g><g><rect fill="white" height="40" stroke="black" width="180" x="1042.5" y="570.0" /><text class="team-name" fill="black" font-size="10px" x="1047.5" y="582.0">Picked: Gonzaga</text><text class="team-name" fill="black" font-size="12px" x="1047.5" y="595.0">1. Gonzaga</text><text class="team-name" fill="black" font-size="12px" x="1047.5" y="607.0">5. Saint Mary's (CA)</text><text fill="red" font-size="14px" x="1207.5" y="594.0">✗</text></g><g><rect fill="white" height="40" stroke="black" width="180" x="922.5" y="510.0" /><text class="team-name" fill="black" font-size="10px" x="927.5" y="522.0">Picked: Gonzaga</text><text class="team-name" fill="black" font-size="12px" x="927.5" y="535.0">5. Houston</text><text class="team-name" fill="black" font-size="12px" x="927.5" y="547.0">1. Gonzaga</text><text fill="red" font-size="14px" x="1087.5" y="534.0">✗</text></g></svg>