<?xml version="1.0" encoding="utf-8" ?>
<svg baseProfile="full" height="1060" version="1.1" width="1900" xmlns="http://www.w3.org/2000/svg" xmlns:ev="http://www.w3.org/2001/xml-events" xmlns:xlink="http://www.w3.org/1999/xlink"><defs /><text font-size="18px" font-weight="bold" x="5" y="-10">South</text><text fill="#555" font-size="12px" text-anchor="middle" x="90.0" y="-30">Round of 64</text><g><rect fill="white" height="40" stroke="black" width="180" x="0" y="33.333333333333336" /><text fill="#555" font-size="10px" x="5" y="45.333333333333336">Picked: Auburn</text><text font-size="12px" x="5" y="58.333333333333336">1. Auburn</text><text font-size="12px" x="5" y="68.33333333333334">16. Alabama State</text><text fill="green" font-size="14px" x="165" y="57.333333333333336">✓</text></g><g><rect fill="white" height="40" stroke="black" width="180" x="0" y="86.66666666666667" /><text fill="#555" font-size="10px" x="5" y="98.66666666666667">Picked: Louisville</text><text font-size="12px" x="5" y="111.66666666666667">8. Louisville</text><text font-size="12px" x="5" y="121.66666666666667">9. Creighton</text><text fill="red" font-size="14px" x="165" y="110.66666666666667">✗</text></g><g><rect fill="white" height="40" stroke="black" width="180" x="0" y="140.0" /><text fill="#555" font-size="10px" x="5" y="152.0">Picked: Michigan</text><text font-size="12px" x="5" y="165.0">5. Michigan</text><text font-size="12px" x="5" y="175.0">12. UC-San Diego</text><text fill="green" font-size="14px" x="165" y="164.0">✓</text></g><g><rect fill="white" height="40" stroke="black" width="180" x="0" y="193.33333333333334" /><text fill="#555" font-size="10px" x="5" y="205.33333333333334">Picked: Texas A&amp;M</text><text font-size="12px" x="5" y="218.33333333333334">4. Texas A&amp;M</text><text font-size="12px" x="5" y="228.33333333333334">13. Yale</text><text fill="green" font-size="14px" x="165" y="217.33333333333334">✓</text></g><g><rect fill="white" height="40" stroke="black" width="180" x="0" y="246.66666666666669" /><text fill="#555" font-size="10px" x="5" y="258.6666666666667">Picked: Mississippi</text><text font-size="12px" x="5" y="271.6666666666667">6. Mississippi</text><text font-size="12px" x="5" y="281.6666666666667">11. UNC</text><text fill="green" font-size="14px" x="165" y="270.6666666666667">✓</text></g><g><rect fill="white" height="40" stroke="black" width="180" x="0" y="300.0" /><text fill="#555" font-size="10px" x="5" y="312.0">Picked: Iowa State</text><text font-size="12px" x="5" y="325.0">3. Iowa State</text><text font-size="12px" x="5" y="335.0">14. Lipscomb</text><text fill="green" font-size="14px" x="165" y="324.0">✓</text></g><g><rect fill="white" height="40" stroke="black" width="180" x="0" y="353.3333333333333" /><text fill="#555" font-size="10px" x="5" y="365.3333333333333">Picked: New Mexico</text><text font-size="12px" x="5" y="378.3333333333333">7. Marquette</text><text font-size="12px" x="5" y="388.3333333333333">10. New Mexico</text><text fill="green" font-size="14px" x="165" y="377.3333333333333">✓</text></g><g><rect fill="white" height="40" stroke="black" width="180" x="0" y="406.6666666666667" /><text fill="#555" font-size="10px" x="5" y="418.6666666666667">Picked: Michigan State</text><text font-size="12px" x="5" y="431.6666666666667">2. Michigan State</text><text font-size="12px" x="5" y="441.6666666666667">15. Bryant</text><text fill="green" font-size="14px" x="165" y="430.6666666666667">✓</text></g><text fill="#555" font-size="12px" text-anchor="middle" x="290.0" y="-30">Round of 32</text><g><rect fill="white" height="40" stroke="black" width="180" x="200" y="76.0" /><text fill="#555" font-size="10px" x="205" y="88.0">Picked: Auburn</text><text font-size="12px" x="205" y="101.0">1. Auburn</text><text font-size="12px" x="205" y="111.0">8. Louisville</text><text fill="green" font-size="14px" x="365" y="100.0">✓</text></g><g><rect fill="white" height="40" stroke="black" width="180" x="200" y="172.0" /><text fill="#555" font-size="10px" x="205" y="184.0">Picked: Michigan</text><text font-size="12px" x="205" y="197.0">5. Michigan</text><text font-size="12px" x="205" y="207.0">4. Texas A&amp;M</text><text fill="green" font-size="14px" x="365" y="196.0">✓</text></g><g><rect fill="white" height="40" stroke="black" width="180" x="200" y="268.0" /><text fill="#555" font-size="10px" x="205" y="280.0">Picked: Mississippi</text><text font-size="12px" x="205" y="293.0">6. Mississippi</text><text font-size="12px" x="205" y="303.0">3. Iowa State</text><text fill="green" font-size="14px" x="365" y="292.0">✓</text></g><g><rect fill="white" height="40" stroke="black" width="180" x="200" y="364.0" /><text fill="#555" font-size="10px" x="205" y="376.0">Picked: Michigan State</text><text font-size="12px" x="205" y="389.0">10. New Mexico</text><text font-size="12px" x="205" y="399.0">2. Michigan State</text><text fill="green" font-size="14px" x="365" y="388.0">✓</text></g><text fill="#555" font-size="12px" text-anchor="middle" x="490.0" y="-30">Sweet Sixteen</text><g><rect fill="white" height="40" stroke="black" width="180" x="400" y="140.0" /><text fill="#555" font-size="10px" x="405" y="152.0">Picked: Auburn</text><text font-size="12px" x="405" y="165.0">1. Auburn</text><text font-size="12px" x="405" y="175.0">5. Michigan</text><text fill="green" font-size="14px" x="565" y="164.0">✓</text></g><g><rect fill="white" height="40" stroke="black" width="180" x="400" y="300.0" /><text fill="#555" font-size="10px" x="405" y="312.0">Picked: Michigan State</text><text font-size="12px" x="405" y="325.0">6. Mississippi</text><text font-size="12px" x="405" y="335.0">2. Michigan State</text><text fill="green" font-size="14px" x="565" y="324.0">✓</text></g><text fill="#555" font-size="12px" text-anchor="middle" x="690.0" y="-30">Elite Eight</text><g><rect fill="white" height="40" stroke="black" width="180" x="600" y="220.0" /><text fill="#555" font-size="10px" x="605" y="232.0">Picked: Auburn</text><text font-size="12px" x="605" y="245.0">1. Auburn</text><text font-size="12px" x="605" y="255.0">2. Michigan State</text><text fill="green" font-size="14px" x="765" y="244.0">✓</text></g><text font-size="18px" font-weight="bold" x="5" y="570">West</text><text fill="#555" font-size="12px" text-anchor="middle" x="90.0" y="550">Round of 64</text><g><rect fill="white" height="40" stroke="black" width="180" x="0" y="613.3333333333334" /><text fill="#555" font-size="10px" x="5" y="625.3333333333334">Picked: Florida</text><text font-size="12px" x="5" y="638.3333333333334">1. Florida</text><text font-size="12px" x="5" y="648.3333333333334">16. Norfolk State</text><text fill="green" font-size="14px" x="165" y="637.3333333333334">✓</text></g><g><rect fill="white" height="40" stroke="black" width="180" x="0" y="666.6666666666666" /><text fill="#555" font-size="10px" x="5" y="678.6666666666666">Picked: Connecticut</text><text font-size="12px" x="5" y="691.6666666666666">8. Connecticut</text><text font-size="12px" x="5" y="701.6666666666666">9. Oklahoma</text><text fill="green" font-size="14px" x="165" y="690.6666666666666">✓</text></g><g><rect fill="white" height="40" stroke="black" width="180" x="0" y="720.0" /><text fill="#555" font-size="10px" x="5" y="732.0">Picked: Colorado State</text><text font-size="12px" x="5" y="745.0">5. Memphis</text><text font-size="12px" x="5" y="755.0">12. Colorado State</text><text fill="green" font-size="14px" x="165" y="744.0">✓</text></g><g><rect fill="white" height="40" stroke="black" width="180" x="0" y="773.3333333333334" /><text fill="#555" font-size="10px" x="5" y="785.3333333333334">Picked: Maryland</text><text font-size="12px" x="5" y="798.3333333333334">4. Maryland</text><text font-size="12px" x="5" y="808.3333333333334">13. Grand Canyon</text><text fill="green" font-size="14px" x="165" y="797.3333333333334">✓</text></g><g><rect fill="white" height="40" stroke="black" width="180" x="0" y="826.6666666666667" /><text fill="#555" font-size="10px" x="5" y="838.6666666666667">Picked: Drake</text><text font-size="12px" x="5" y="851.6666666666667">6. Missouri</text><text font-size="12px" x="5" y="861.6666666666667">11. Drake</text><text fill="green" font-size="14px" x="165" y="850.6666666666667">✓</text></g><g><rect fill="white" height="40" stroke="black" width="180" x="0" y="880.0" /><text fill="#555" font-size="10px" x="5" y="892.0">Picked: Texas Tech</text><text font-size="12px" x="5" y="905.0">3. Texas Tech</text><text font-size="12px" x="5" y="915.0">14. UNC Wilmington</text><text fill="green" font-size="14px" x="165" y="904.0">✓</text></g><g><rect fill="white" height="40" stroke="black" width="180" x="0" y="933.3333333333333" /><text fill="#555" font-size="10px" x="5" y="945.3333333333333">Picked: Arkansas</text><text font-size="12px" x="5" y="958.3333333333333">7. Kansas</text><text font-size="12px" x="5" y="968.3333333333333">10. Arkansas</text><text fill="green" font-size="14px" x="165" y="957.3333333333333">✓</text></g><g><rect fill="white" height="40" stroke="black" width="180" x="0" y="986.6666666666667" /><text fill="#555" font-size="10px" x="5" y="998.6666666666667">Picked: St. John's (NY)</text><text font-size="12px" x="5" y="1011.6666666666667">2. St. John's (NY)</text><text font-size="12px" x="5" y="1021.6666666666667">15. Omaha</text><text fill="green" font-size="14px" x="165" y="1010.6666666666667">✓</text></g><text fill="#555" font-size="12px" text-anchor="middle" x="290.0" y="550">Round of 32</text><g><rect fill="white" height="40" stroke="black" width="180" x="200" y="656.0" /><text fill="#555" font-size="10px" x="205" y="668.0">Picked: Florida</text><text font-size="12px" x="205" y="681.0">1. Florida</text><text font-size="12px" x="205" y="691.0">8. Connecticut</text><text fill="green" font-size="14px" x="365" y="680.0">✓</text></g><g><rect fill="white" height="40" stroke="black" width="180" x="200" y="752.0" /><text fill="#555" font-size="10px" x="205" y="764.0">Picked: Maryland</text><text font-size="12px" x="205" y="777.0">12. Colorado State</text><text font-size="12px" x="205" y="787.0">4. Maryland</text><text fill="green" font-size="14px" x="365" y="776.0">✓</text></g><g><rect fill="white" height="40" stroke="black" width="180" x="200" y="848.0" /><text fill="#555" font-size="10px" x="205" y="860.0">Picked: Texas Tech</text><text font-size="12px" x="205" y="873.0">11. Drake</text><text font-size="12px" x="205" y="883.0">3. Texas Tech</text><text fill="green" font-size="14px" x="365" y="872.0">✓</text></g><g><rect fill="white" height="40" stroke="black" width="180" x="200" y="944.0" /><text fill="#555" font-size="10px" x="205" y="956.0">Picked: St. John's (NY)</text><text font-size="12px" x="205" y="969.0">10. Arkansas</text><text font-size="12px" x="205" y="979.0">2. St. John's (NY)</text><text fill="red" font-size="14px" x="365" y="968.0">✗</text></g><text fill="#555" font-size="12px" text-anchor="middle" x="490.0" y="550">Sweet Sixteen</text><g><rect fill="white" height="40" stroke="black" width="180" x="400" y="720.0" /><text fill="#555" font-size="10px" x="405" y="732.0">Picked: Florida</text><text font-size="12px" x="405" y="745.0">1. Florida</text><text font-size="12px" x="405" y="755.0">4. Maryland</text><text fill="green" font-size="14px" x="565" y="744.0">✓</text></g><g><rect fill="white" height="40" stroke="black" width="180" x="400" y="880.0" /><text fill="#555" font-size="10px" x="405" y="892.0">Picked: St. John's (NY)</text><text font-size="12px" x="405" y="905.0">3. Texas Tech</text><text font-size="12px" x="405" y="915.0">2. St. John's (NY)</text><text fill="red" font-size="14px" x="565" y="904.0">✗</text></g><text fill="#555" font-size="12px" text-anchor="middle" x="690.0" y="550">Elite Eight</text><g><rect fill="white" height="40" stroke="black" width="180" x="600" y="800.0" /><text fill="#555" font-size="10px" x="605" y="812.0">Picked: Florida</text><text font-size="12px" x="605" y="825.0">1. Florida</text><text font-size="12px" x="605" y="835.0">2. St. John's (NY)</text><text fill="green" font-size="14px" x="765" y="824.0">✓</text></g><text font-size="18px" font-weight="bold" x="1105" y="-10">East</text><text fill="#555" font-size="12px" text-anchor="middle" x="1790.0" y="-30">Round of 64</text><g><rect fill="white" height="40" stroke="black" width="180" x="1700" y="33.333333333333336" /><text fill="#555" font-size="10px" x="1705" y="45.333333333333336">Picked: Duke</text><text font-size="12px" x="1705" y="58.333333333333336">1. Duke</text><text font-size="12px" x="1705" y="68.33333333333334">16. Mount St. Mary's</text><text fill="green" font-size="14px" x="1865" y="57.333333333333336">✓</text></g><g><rect fill="white" height="40" stroke="black" width="180" x="1700" y="86.66666666666667" /><text fill="#555" font-size="10px" x="1705" y="98.66666666666667">Picked: Baylor</text><text font-size="12px" x="1705" y="111.66666666666667">8. Mississippi State</text><text font-size="12px" x="1705" y="121.66666666666667">9. Baylor</text><text fill="green" font-size="14px" x="1865" y="110.66666666666667">✓</text></g><g><rect fill="white" height="40" stroke="black" width="180" x="1700" y="140.0" /><text fill="#555" font-size="10px" x="1705" y="152.0">Picked: Oregon</text><text font-size="12px" x="1705" y="165.0">5. Oregon</text><text font-size="12px" x="1705" y="175.0">12. Liberty</text><text fill="green" font-size="14px" x="1865" y="164.0">✓</text></g><g><rect fill="white" height="40" stroke="black" width="180" x="1700" y="193.33333333333334" /><text fill="#555" font-size="10px" x="1705" y="205.33333333333334">Picked: Arizona</text><text font-size="12px" x="1705" y="218.33333333333334">4. Arizona</text><text font-size="12px" x="1705" y="228.33333333333334">13. Akron</text><text fill="green" font-size="14px" x="1865" y="217.33333333333334">✓</text></g><g><rect fill="white" height="40" stroke="black" width="180" x="1700" y="246.66666666666669" /><text fill="#555" font-size="10px" x="1705" y="258.6666666666667">Picked: Brigham Young</text><text font-size="12px" x="1705" y="271.6666666666667">6. Brigham Young</text><text font-size="12px" x="1705" y="281.6666666666667">11. Virginia Commonwealth</text><text fill="green" font-size="14px" x="1865" y="270.6666666666667">✓</text></g><g><rect fill="white" height="40" stroke="black" width="180" x="1700" y="300.0" /><text fill="#555" font-size="10px" x="1705" y="312.0">Picked: Wisconsin</text><text font-size="12px" x="1705" y="325.0">3. Wisconsin</text><text font-size="12px" x="1705" y="335.0">14. Montana</text><text fill="green" font-size="14px" x="1865" y="324.0">✓</text></g><g><rect fill="white" height="40" stroke="black" width="180" x="1700" y="353.3333333333333" /><text fill="#555" font-size="10px" x="1705" y="365.3333333333333">Picked: Saint Mary's (CA)</text><text font-size="12px" x="1705" y="378.3333333333333">7. Saint Mary's (CA)</text><text font-size="12px" x="1705" y="388.3333333333333">10. Vanderbilt</text><text fill="green" font-size="14px" x="1865" y="377.3333333333333">✓</text></g><g><rect fill="white" height="40" stroke="black" width="180" x="1700" y="406.6666666666667" /><text fill="#555" font-size="10px" x="1705" y="418.6666666666667">Picked: Alabama</text><text font-size="12px" x="1705" y="431.6666666666667">2. Alabama</text><text font-size="12px" x="1705" y="441.6666666666667">15. Rober Morris</text><text fill="green" font-size="14px" x="1865" y="430.6666666666667">✓</text></g><text fill="#555" font-size="12px" text-anchor="middle" x="1590.0" y="-30">Round of 32</text><g><rect fill="white" height="40" stroke="black" width="180" x="1500" y="76.0" /><text fill="#555" font-size="10px" x="1505" y="88.0">Picked: Duke</text><text font-size="12px" x="1505" y="101.0">1. Duke</text><text font-size="12px" x="1505" y="111.0">9. Baylor</text><text fill="green" font-size="14px" x="1665" y="100.0">✓</text></g><g><rect fill="white" height="40" stroke="black" width="180" x="1500" y="172.0" /><text fill="#555" font-size="10px" x="1505" y="184.0">Picked: Arizona</text><text font-size="12px" x="1505" y="197.0">5. Oregon</text><text font-size="12px" x="1505" y="207.0">4. Arizona</text><text fill="green" font-size="14px" x="1665" y="196.0">✓</text></g><g><rect fill="white" height="40" stroke="black" width="180" x="1500" y="268.0" /><text fill="#555" font-size="10px" x="1505" y="280.0">Picked: Brigham Young</text><text font-size="12px" x="1505" y="293.0">6. Brigham Young</text><text font-size="12px" x="1505" y="303.0">3. Wisconsin</text><text fill="green" font-size="14px" x="1665" y="292.0">✓</text></g><g><rect fill="white" height="40" stroke="black" width="180" x="1500" y="364.0" /><text fill="#555" font-size="10px" x="1505" y="376.0">Picked: Alabama</text><text font-size="12px" x="1505" y="389.0">7. Saint Mary's (CA)</text><text font-size="12px" x="1505" y="399.0">2. Alabama</text><text fill="green" font-size="14px" x="1665" y="388.0">✓</text></g><text fill="#555" font-size="12px" text-anchor="middle" x="1390.0" y="-30">Sweet Sixteen</text><g><rect fill="white" height="40" stroke="black" width="180" x="1300" y="140.0" /><text fill="#555" font-size="10px" x="1305" y="152.0">Picked: Duke</text><text font-size="12px" x="1305" y="165.0">1. Duke</text><text font-size="12px" x="1305" y="175.0">4. Arizona</text><text fill="green" font-size="14px" x="1465" y="164.0">✓</text></g><g><rect fill="white" height="40" stroke="black" width="180" x="1300" y="300.0" /><text fill="#555" font-size="10px" x="1305" y="312.0">Picked: Alabama</text><text font-size="12px" x="1305" y="325.0">6. Brigham Young</text><text font-size="12px" x="1305" y="335.0">2. Alabama</text><text fill="green" font-size="14px" x="1465" y="324.0">✓</text></g><text fill="#555" font-size="12px" text-anchor="middle" x="1190.0" y="-30">Elite Eight</text><g><rect fill="white" height="40" stroke="black" width="180" x="1100" y="220.0" /><text fill="#555" font-size="10px" x="1105" y="232.0">Picked: Duke</text><text font-size="12px" x="1105" y="245.0">1. Duke</text><text font-size="12px" x="1105" y="255.0">2. Alabama</text><text fill="green" font-size="14px" x="1265" y="244.0">✓</text></g><text font-size="18px" font-weight="bold" x="1105" y="570">Midwest</text><text fill="#555" font-size="12px" text-anchor="middle" x="1790.0" y="550">Round of 64</text><g><rect fill="white" height="40" stroke="black" width="180" x="1700" y="613.3333333333334" /><text fill="#555" font-size="10px" x="1705" y="625.3333333333334">Picked: Houston</text><text font-size="12px" x="1705" y="638.3333333333334">1. Houston</text><text font-size="12px" x="1705" y="648.3333333333334">16. SIU-Edwardsville</text><text fill="green" font-size="14px" x="1865" y="637.3333333333334">✓</text></g><g><rect fill="white" height="40" stroke="black" width="180" x="1700" y="666.6666666666666" /><text fill="#555" font-size="10px" x="1705" y="678.6666666666666">Picked: Gonzaga</text><text font-size="12px" x="1705" y="691.6666666666666">8. Gonzaga</text><text font-size="12px" x="1705" y="701.6666666666666">9. Georgia</text><text fill="green" font-size="14px" x="1865" y="690.6666666666666">✓</text></g><g><rect fill="white" height="40" stroke="black" width="180" x="1700" y="720.0" /><text fill="#555" font-size="10px" x="1705" y="732.0">Picked: Clemson</text><text font-size="12px" x="1705" y="745.0">5. Clemson</text><text font-size="12px" x="1705" y="755.0">12. McNeese State</text><text fill="red" font-size="14px" x="1865" y="744.0">✗</text></g><g><rect fill="white" height="40" stroke="black" width="180" x="1700" y="773.3333333333334" /><text fill="#555" font-size="10px" x="1705" y="785.3333333333334">Picked: Purdue</text><text font-size="12px" x="1705" y="798.3333333333334">4. Purdue</text><text font-size="12px" x="1705" y="808.3333333333334">13. High Point</text><text fill="green" font-size="14px" x="1865" y="797.3333333333334">✓</text></g><g><rect fill="white" height="40" stroke="black" width="180" x="1700" y="826.6666666666667" /><text fill="#555" font-size="10px" x="1705" y="838.6666666666667">Picked: Illinois</text><text font-size="12px" x="1705" y="851.6666666666667">6. Illinois</text><text font-size="12px" x="1705" y="861.6666666666667">11. Xavier</text><text fill="green" font-size="14px" x="1865" y="850.6666666666667">✓</text></g><g><rect fill="white" height="40" stroke="black" width="180" x="1700" y="880.0" /><text fill="#555" font-size="10px" x="1705" y="892.0">Picked: Kentucky</text><text font-size="12px" x="1705" y="905.0">3. Kentucky</text><text font-size="12px" x="1705" y="915.0">14. Troy</text><text fill="green" font-size="14px" x="1865" y="904.0">✓</text></g><g><rect fill="white" height="40" stroke="black" width="180" x="1700" y="933.3333333333333" /><text fill="#555" font-size="10px" x="1705" y="945.3333333333333">Picked: UCLA</text><text font-size="12px" x="1705" y="958.3333333333333">7. UCLA</text><text font-size="12px" x="1705" y="968.3333333333333">10. Utah State</text><text fill="green" font-size="14px" x="1865" y="957.3333333333333">✓</text></g><g><rect fill="white" height="40" stroke="black" width="180" x="1700" y="986.6666666666667" /><text fill="#555" font-size="10px" x="1705" y="998.6666666666667">Picked: Tennessee</text><text font-size="12px" x="1705" y="1011.6666666666667">2. Tennessee</text><text font-size="12px" x="1705" y="1021.6666666666667">15. Wofford</text><text fill="green" font-size="14px" x="1865" y="1010.6666666666667">✓</text></g><text fill="#555" font-size="12px" text-anchor="middle" x="1590.0" y="550">Round of 32</text><g><rect fill="white" height="40" stroke="black" width="180" x="1500" y="656.0" /><text fill="#555" font-size="10px" x="1505" y="668.0">Picked: Houston</text><text font-size="12px" x="1505" y="681.0">1. Houston</text><text font-size="12px" x="1505" y="691.0">8. Gonzaga</text><text fill="green" font-size="14px" x="1665" y="680.0">✓</text></g><g><rect fill="white" height="40" stroke="black" width="180" x="1500" y="752.0" /><text fill="#555" font-size="10px" x="1505" y="764.0">Picked: Clemson</text><text font-size="12px" x="1505" y="777.0">5. Clemson</text><text font-size="12px" x="1505" y="787.0">4. Purdue</text><text fill="red" font-size="14px" x="1665" y="776.0">✗</text></g><g><rect fill="white" height="40" stroke="black" width="180" x="1500" y="848.0" /><text fill="#555" font-size="10px" x="1505" y="860.0">Picked: Kentucky</text><text font-size="12px" x="1505" y="873.0">6. Illinois</text><text font-size="12px" x="1505" y="883.0">3. Kentucky</text><text fill="green" font-size="14px" x="1665" y="872.0">✓</text></g><g><rect fill="white" height="40" stroke="black" width="180" x="1500" y="944.0" /><text fill="#555" font-size="10px" x="1505" y="956.0">Picked: Tennessee</text><text font-size="12px" x="1505" y="969.0">7. UCLA</text><text font-size="12px" x="1505" y="979.0">2. Tennessee</text><text fill="green" font-size="14px" x="1665" y="968.0">✓</text></g><text fill="#555" font-size="12px" text-anchor="middle" x="1390.0" y="550">Sweet Sixteen</text><g><rect fill="white" height="40" stroke="black" width="180" x="1300" y="720.0" /><text fill="#555" font-size="10px" x="1305" y="732.0">Picked: Houston</text><text font-size="12px" x="1305" y="745.0">1. Houston</text><text font-size="12px" x="1305" y="755.0">5. Clemson</text><text fill="green" font-size="14px" x="1465" y="744.0">✓</text></g><g><rect fill="white" height="40" stroke="black" width="180" x="1300" y="880.0" /><text fill="#555" font-size="10px" x="1305" y="892.0">Picked: Tennessee</text><text font-size="12px" x="1305" y="905.0">3. Kentucky</text><text font-size="12px" x="1305" y="915.0">2. Tennessee</text><text fill="green" font-size="14px" x="1465" y="904.0">✓</text></g><text fill="#555" font-size="12px" text-anchor="middle" x="1190.0" y="550">Elite Eight</text><g><rect fill="white" height="40" stroke="black" width="180" x="1100" y="800.0" /><text fill="#555" font-size="10px" x="1105" y="812.0">Picked: Houston</text><text font-size="12px" x="1105" y="825.0">1. Houston</text><text font-size="12px" x="1105" y="835.0">2. Tennessee</text><text fill="green" font-size="14px" x="1265" y="824.0">✓</text></g><g><rect fill="white" height="40" stroke="black" width="180" x="740.0" y="570.0" /><text fill="#555" font-size="10px" x="745.0" y="582.0">Picked: Florida</text><text font-size="12px" x="745.0" y="595.0">1. Auburn</text><text font-size="12px" x="745.0" y="605.0">1. Florida</text><text fill="green" font-size="14px" x="905.0" y="594.0">✓</text></g><g><rect fill="white" height="40" stroke="black" width="180" x="980.0" y="570.0" /><text fill="#555" font-size="10px" x="985.0" y="582.0">Picked: Houston</text><text font-size="12px" x="985.0" y="595.0">1. Duke</text><text font-size="12px" x="985.0" y="605.0">1. Houston</text><text fill="green" font-size="14px" x="1145.0" y="594.0">✓</text></g><g><rect fill="white" height="40" stroke="black" width="180" x="860.0" y="510.0" /><text fill="#555" font-size="10px" x="865.0" y="522.0">Picked: Florida</text><text font-size="12px" x="865.0" y="535.0">1. Florida</text><text font-size="12px" x="865.0" y="545.0">1. Houston</text><text fill="green" font-size="14px" x="1025.0" y="534.0">✓</text></g></svg>